<?xml version="1.0" encoding="UTF-8" standalone="no"?>
<!-- Created with Inkscape (http://www.inkscape.org/) -->

<svg
   version="1.1"
   id="svg1"
   width="1003"
   height="1003"
   viewBox="0 0 1003 1003"
   sodipodi:docname="mytholore_logo.svg"
   inkscape:version="1.3.2 (091e20e, 2023-11-25, custom)"
   xmlns:inkscape="http://www.inkscape.org/namespaces/inkscape"
   xmlns:sodipodi="http://sodipodi.sourceforge.net/DTD/sodipodi-0.dtd"
   xmlns="http://www.w3.org/2000/svg"
   xmlns:svg="http://www.w3.org/2000/svg">
  <defs
     id="defs1" />
  <sodipodi:namedview
     id="namedview1"
     pagecolor="#ffffff"
     bordercolor="#000000"
     borderopacity="0.25"
     inkscape:showpageshadow="2"
     inkscape:pageopacity="0.0"
     inkscape:pagecheckerboard="0"
     inkscape:deskcolor="#d1d1d1"
     inkscape:zoom="0.8105683"
     inkscape:cx="502.11685"
     inkscape:cy="501.5"
     inkscape:window-width="1920"
     inkscape:window-height="1009"
     inkscape:window-x="-8"
     inkscape:window-y="-8"
     inkscape:window-maximized="1"
     inkscape:current-layer="g1" />
  <g
     inkscape:groupmode="layer"
     inkscape:label="Image"
     id="g1">
    <path
       style="display:inline;fill:#000000"
       d="M 498.71587,802.75 C 494.601,781.21664 493.16532,763.97524 490.95098,709.5 489.73483,679.58123 488.44287,572 489.29972,572 c 0.33149,0 3.1942,0.675 6.36159,1.5 3.16739,0.825 8.66247,1.5 12.2113,1.5 h 6.45241 l -0.65235,44.75 c -1.02415,70.25482 -3.42679,131.14471 -6.14137,155.64036 C 506.01741,789.05129 501.96486,812 501.06633,812 c -0.32057,0 -1.37828,-4.1625 -2.35046,-9.25 z m -464.684262,-234 c 0.01739,-0.6875 1.989434,-2.43722 4.38233,-3.88826 5.20089,-3.15381 9.919091,-11.90814 11.51304,-21.36174 0.989021,-5.86581 6.22717,-56.45361 10.020226,-96.77105 2.491848,-26.48653 1.548031,-31.78762 -6.550675,-36.7929 C 51.528438,408.78151 50,407.48118 50,407.04643 c 0,-0.55838 35.795119,-0.59929 48.719863,-0.0557 0.120925,0.005 -0.935716,1.69675 -2.348091,3.75925 -3.67928,5.37288 -3.03573,9.00238 7.402738,41.75 4.90882,15.4 9.52779,30.3625 10.26436,33.25 0.73658,2.8875 1.59295,5.25 1.90305,5.25 0.65294,0 7.82954,-22.75392 16.24315,-51.5 5.75988,-19.67927 7.05553,-26.95036 5.54172,-31.09945 -0.76021,-2.08358 -0.59395,-2.10367 22.00361,-2.65924 12.52328,-0.30788 22.97099,-0.36174 23.21714,-0.11968 0.24614,0.24206 -1.82841,2.43105 -4.61012,4.86442 -7.72092,6.75408 -7.90234,7.58913 -6.49781,29.9088 3.08468,49.0193 8.57325,104.49354 11.17045,112.9023 1.93311,6.25869 5.37535,11.1731 9.38034,13.3921 1.04165,0.57714 1.57638,1.55549 1.19098,2.17907 C 192.7724,570.17728 142,570.52608 142,569.22268 c 0,-0.42752 1.31012,-1.92692 2.91137,-3.33199 6.61763,-5.80687 7.5201,-19.65814 4.11604,-63.17402 C 147.94249,488.8475 146.7563,473.675 146.39144,469 l -0.66339,-8.5 -7.8845,23.5 c -7.33125,21.85104 -13.55835,41.40973 -22.36622,70.25 -1.97366,6.4625 -3.90096,11.74941 -4.2829,11.74869 -0.38194,-7.3e-4 -7.83211,-22.38823 -16.555932,-49.75 C 85.914672,488.88691 78.525304,465.825 78.217681,465 c -0.578061,-1.55027 -2.960437,22.00281 -5.664355,56 -2.594677,32.62365 -2.028232,38.92971 4.008265,44.62286 1.83479,1.73043 3.059028,3.42319 2.720529,3.76169 C 78.94362,569.72305 68.616667,570 56.333333,570 39.116475,570 34.007241,569.71363 34.031608,568.75 Z M 859,569.0777 c 0,-0.51783 1.36019,-1.91005 3.02264,-3.09382 1.66245,-1.18377 4.02495,-4.02691 5.25,-6.31809 L 869.5,555.5 l 0.29026,-66.24363 c 0.19585,-44.69861 -0.0569,-67.53285 -0.77711,-70.20755 -0.58706,-2.18015 -2.63017,-5.62096 -4.54026,-7.64624 C 862.5628,409.37729 861,407.5536 861,407.34993 c 0,-0.20367 20.3625,-0.25322 45.25,-0.11012 l 45.25,0.26019 1.15542,20 c 1.48803,25.75731 1.53026,28.5 0.43884,28.5 -0.49816,0 -2.26414,-2.90282 -3.9244,-6.45071 C 942.53288,435.36639 927.11285,426 910.40029,426 900.19039,426 901,423.69692 901,452.74069 v 25.5267 l 9.75,-0.49082 c 5.47247,-0.27549 11.28552,-1.16141 13.25,-2.01933 3.7449,-1.63545 9.12397,-6.4112 12.69444,-11.27061 l 2.19445,-2.98663 0.0556,25.75 c 0.0306,14.1625 -0.28194,25.72557 -0.69444,25.6957 -0.4125,-0.0299 -2.1,-2.15509 -3.75,-4.72273 -1.65,-2.56764 -4.94256,-6.02459 -7.3168,-7.68211 -4.04392,-2.82316 -5.00793,-3.03733 -15.25,-3.38789 L 901,496.77875 v 25.48818 c 0,19.43712 0.30269,25.73939 1.275,26.54633 2.36296,1.96109 11.04864,2.33578 19.41246,0.83744 9.73253,-1.74354 17.95923,-5.84132 24.7059,-12.30617 C 951.07127,532.86201 958,523.13362 958,521.04804 958,520.47162 958.51457,520 959.14348,520 c 1.25924,0 0.92012,5.75394 -1.97435,33.5 l -1.66913,16 -48.25,0.2596 C 877.5645,569.91932 859,569.65696 859,569.0777 Z M 494.5748,562.349 c -15.86819,-4.87043 -30.65416,-22.54199 -36.73624,-43.90559 -3.18981,-11.20436 -3.17779,-33.20464 0.0246,-44.94341 5.40673,-19.81939 16.98336,-36.3453 29.92265,-42.7153 6.42039,-3.16074 7.12583,-3.2847 18.69321,-3.2847 11.37499,0 12.37036,0.16646 18.52103,3.09738 16.5639,7.89303 26.35944,22.58599 31.47943,47.218 3.48762,16.77875 0.86451,42.07819 -5.87523,56.66547 -3.74475,8.10501 -13.42073,19.15524 -20.3065,23.19058 -10.31559,6.04533 -25.00147,7.96831 -35.7229,4.67757 z m 20.61731,-16.25588 c 13.38467,-8.4883 19.89815,-32.85121 16.86089,-63.06619 -2.04304,-20.32435 -8.60067,-34.55531 -18.25334,-39.61225 -3.53159,-1.85016 -11.14064,-1.80683 -14.79763,0.0843 -11.88717,6.1471 -18.97803,34.77266 -16.007,64.61976 1.51151,15.18476 4.68492,25.70347 9.73944,32.28274 6.88419,8.96088 14.32788,10.84741 22.45764,5.69167 z M 681.5,561.94038 C 665.12258,556.62513 651.48356,539.96897 645.92852,518.5 c -2.90065,-11.21034 -2.87764,-30.81542 0.0506,-43.15938 8.13832,-34.30642 34.003,-53.96461 61.56073,-46.78862 22.38595,5.82927 37.44818,28.59425 39.99484,60.448 1.39525,17.45189 -3.60321,40.61226 -11.34923,52.58665 -6.82398,10.54902 -18.10916,18.77347 -29.30017,21.35346 -7.05565,1.62661 -18.70682,1.16777 -25.38534,-0.99973 z M 704.63065,545.75 c 12.68185,-8.48645 19.10741,-32.63112 16.44589,-61.797 -2.6443,-28.97734 -13.89627,-45.06322 -28.63491,-40.93666 C 679.246,446.71089 672.0192,465.11853 672.03295,495 c 0.0109,23.59719 2.75579,36.2596 9.88711,45.60931 6.84047,8.96839 14.42506,10.68521 22.71059,5.14069 z m 120.72259,14.83407 C 816.8322,556.61657 809.80867,545.52297 802.8639,525.06241 801.28876,520.42174 800,515.55466 800,514.24667 800,509.13974 798.4427,508 791.46482,508 H 785 l 0.006,18.25 c 0.003,10.25803 0.49045,19.99655 1.1128,22.23831 0.61888,2.22923 2.62919,5.42371 4.55793,7.24274 1.89788,1.78994 3.17056,3.7077 2.82818,4.26169 -0.76755,1.24192 -43.39928,1.36022 -45.34688,0.12583 -1.01996,-0.64645 -0.59419,-1.38357 1.77264,-3.0689 4.15765,-2.96051 7.05245,-8.91886 8.23458,-16.94916 1.40239,-9.52665 1.21683,-87.94509 -0.22454,-94.88814 -0.95146,-4.58315 -1.98782,-6.36255 -5.95795,-10.22957 l -4.80613,-4.68132 28.16189,-0.65949 c 22.66191,-0.5307 29.46319,-0.37859 34.82498,0.77884 13.92875,3.00676 25.13135,10.83806 30.35004,21.21652 2.72455,5.41835 2.94943,6.69629 2.96742,16.86265 0.017,9.63391 -0.27295,11.55885 -2.33512,15.5 -3.20076,6.11721 -9.66198,12.66471 -15.39542,15.60103 -2.6125,1.33796 -4.75,2.55127 -4.75,2.69623 0,0.14496 3.72775,8.57488 8.28388,18.73315 8.65343,19.29353 13.74124,27.78754 20.61871,34.42254 2.25358,2.17412 4.09741,4.24039 4.09741,4.59171 0,1.41139 -8.18235,2.95478 -15.61602,2.94557 -6.20603,-0.008 -8.97936,-0.51979 -13.03074,-2.40616 z m -20.99769,-69.42816 c 9.16555,-4.88648 11.86432,-10.17042 11.76557,-23.03589 -0.0646,-8.41406 -3.48176,-15.71194 -9.21856,-19.68754 -3.55225,-2.46172 -5.22196,-2.87961 -12.98939,-3.25097 L 785,444.75536 v 24.5559 24.5559 l 2.75,0.38861 c 5.14232,0.72669 11.73737,-0.50445 16.60555,-3.09986 z M 205.24477,555.75 C 211.10965,550.23843 212,546.07924 212,524.19336 v -16.70819 l -9.08767,-26.49259 C 192.815,451.55661 188.75647,442.84266 181.75172,435.55927 179.13827,432.84187 177,430.47937 177,430.30927 177,430.13917 186.46347,430 198.02994,430 h 21.02993 l -2.15082,2.90915 c -3.68883,4.98941 -1.73517,14.74945 7.77302,38.83211 l 3.64858,9.24126 4.31527,-11.02202 c 7.92736,-20.248 9.11273,-29.73795 4.49471,-35.98416 C 235.96328,432.38389 235,430.83776 235,430.54049 235,430.24322 243.1,430 253,430 c 9.9,0 18,0.22617 18,0.5026 0,0.27643 -1.7329,2.06818 -3.8509,3.98166 -6.27548,5.66952 -10.93751,15.7491 -24.30259,52.5436 L 236.5,504.5 236.581,523 c 0.10522,24.042 1.63866,30.37125 8.21044,33.88836 C 249.74247,559.53807 246.63532,560 223.8612,560 h -23.13883 z m 83.75526,3.5 c 2e-5,-0.4125 1.5761,-2.00755 3.5024,-3.54455 6.4047,-5.11032 7.70228,-9.2158 8.59853,-27.20545 0.43842,-8.8 0.82006,-30.7375 0.84808,-48.75 L 302,447 h -2.3185 c -6.25075,0 -13.04932,3.1993 -18.36197,8.64085 -2.93148,3.0026 -6.23676,7.23674 -7.34507,9.40921 -2.73724,5.36544 -4.08263,5.03902 -3.29757,-0.80006 0.35125,-2.6125 1.58014,-11.5 2.73087,-19.75 l 2.09224,-15 3.5,0.5 c 1.925,0.275 19.36271,0.5 38.75046,0.5 19.38776,0 35.26911,0 35.29189,0 0.42365,0 3.67187,36.10893 3.28122,36.47581 -0.30697,0.2883 -1.06786,-0.33555 -1.69085,-1.38635 -3.0781,-5.19179 -9.71051,-12.36112 -13.74014,-14.85245 -2.64283,-1.63393 -6.65221,-3.03964 -9.6989,-3.40048 L 326,446.72142 v 47.27327 c 0,33.34071 0.3466,48.43012 1.17602,51.19847 1.29894,4.33549 8.18417,12.80684 10.40897,12.80684 0.77825,0 1.41501,0.45 1.41501,1 0,0.64 -9,1 -25,1 -13.75,0 -24.99999,-0.3375 -24.99997,-0.75 z M 357,559.34593 c 0,-0.35974 1.71219,-2.11965 3.80487,-3.9109 2.17822,-1.86448 4.32786,-4.89812 5.02817,-7.09593 3.2235,-10.11648 4.08089,-95.14955 1.06706,-105.82741 -0.6288,-2.22779 -2.674,-5.44854 -4.63324,-7.29634 -1.92914,-1.81941 -3.33487,-3.48067 -3.12385,-3.6917 0.65992,-0.65992 41.8578,-0.85618 42.51146,-0.20251 0.34101,0.34101 -0.74669,1.89673 -2.41712,3.45714 -4.49773,4.20151 -5.40443,8.73659 -5.96264,29.82362 l -0.50567,19.10191 3.24048,0.64809 c 4.11393,0.82279 18.768,0.8426 22.8267,0.0309 l 3.08621,-0.61725 -0.51293,-19.63275 c -0.64569,-24.71394 -0.76312,-25.41153 -5.08237,-30.19242 L 412.76728,430 h 21.81252 21.81253 l -3.08421,3.25 c -6.15663,6.48756 -6.54044,8.18705 -7.50926,33.25 -0.96374,24.93146 -0.25955,66.13737 1.30522,76.37556 1.21683,7.96164 3.09034,11.6565 6.91285,13.63319 1.64069,0.84844 2.98307,1.98105 2.98307,2.51693 0,0.6029 -8.38657,0.97432 -22,0.97432 -12.1,0 -22,-0.36581 -22,-0.81291 0,-0.4471 1.35285,-2.10902 3.00633,-3.69315 1.65348,-1.58414 3.47436,-4.48083 4.04641,-6.43709 0.57205,-1.95627 1.31223,-13.34435 1.64486,-25.30685 L 422.30238,502 h -14.77055 -14.77054 l 0.44588,22.25 c 0.47593,23.74905 1.32996,28.30267 5.97582,31.86279 C 403.54852,559.45808 400.65683,560 378.44098,560 366.64844,560 357,559.70567 357,559.34593 Z m 205.75,-0.0622 c -3.37766,-0.51168 -3.51453,-1.61438 -0.37777,-3.04358 1.30473,-0.59448 3.43705,-3.25421 4.73849,-5.91052 2.15692,-4.4024 2.42073,-6.55468 2.98213,-24.32965 1.00232,-31.7356 0.38157,-76.8142 -1.12846,-81.94828 -0.81941,-2.78597 -2.9257,-6.06567 -5.63636,-8.77632 C 560.94761,432.89498 559,430.73421 559,430.47368 559,430.21316 569.8,430 583,430 c 13.2,0 24,0.36537 24,0.81194 0,0.44657 -1.34635,1.80734 -2.99189,3.02394 -1.64554,1.2166 -4.00374,4.11373 -5.24045,6.43806 -2.242,4.21374 -2.24859,4.36747 -2.25811,52.72606 l -0.01,48.5 3.78024,0.31217 c 12.93894,1.06848 27.98296,-10.77792 33.46854,-26.35479 0.96317,-2.73501 2.20122,-5.0831 2.75122,-5.21797 0.63976,-0.15688 1.11013,8.52563 1.30573,24.10231 l 0.30573,24.34753 -10.71129,0.65537 c -11.32102,0.69269 -59.97821,0.64687 -64.65017,-0.0609 z M 488.52589,413.36096 c -1.48223,-11.86341 -3.97229,-13.55322 -23.41278,-15.88834 -15.58093,-1.87154 -24.30694,-4.39816 -31.25791,-9.05075 -7.2075,-4.82431 -11.17193,-9.48523 -15.62354,-18.36838 -3.71529,-7.41384 -3.73166,-7.50156 -3.7315,-20 1.4e-4,-11.4301 0.30293,-13.53786 3.38356,-23.55349 7.68958,-25 8.41123,-28.83768 8.462,-45 0.0617,-19.62948 -2.72896,-29.86866 -11.76448,-43.16563 -1.43753,-2.11552 -2.13451,-3.98328 -1.55811,-4.17541 2.10729,-0.70243 15.55516,8.35157 21.92184,14.75925 6.35175,6.39264 12.99614,15.54238 18.39553,25.33179 2.96379,5.37353 2.35487,5.84024 -2.93564,2.25 -6.98496,-4.74013 -7.36028,-4.19539 -6.71765,9.75 0.41986,9.1111 0.0838,15.70919 -1.31135,25.75 -1.07518,7.73776 -1.87586,19.26224 -1.87586,27 10e-6,12.77876 0.14615,13.77717 2.73543,18.68799 3.25519,6.17379 7.56389,9.6899 15.13503,12.35095 11.34861,3.98871 25.24242,1.44031 28.39545,-5.20829 1.71428,-3.61479 2.97299,-17.85549 4.19883,-47.5045 1.71727,-41.53518 1.76679,-60.32707 0.15896,-60.32657 -0.75696,2.3e-4 -4.03292,1.35042 -7.2799,3.00042 -3.24699,1.65 -6.08597,3 -6.30884,3 -0.22287,0 1.33371,-3.7125 3.45908,-8.25 5.48039,-11.70022 17.42606,-49.27553 19.43169,-61.12269 0.26748,-1.57999 0.66231,-3.04868 0.8774,-3.26377 0.21509,-0.2151 1.858,5.35262 3.65091,12.37269 4.5514,17.82081 12.11439,40.48115 16.96656,50.8354 2.25358,4.80902 3.96448,8.87662 3.802,9.0391 -0.16248,0.16248 -2.92995,-1.03346 -6.14993,-2.65765 -3.21998,-1.6242 -6.4661,-2.95308 -7.21359,-2.95308 -1.68887,0 -1.78072,14.24945 -0.3481,54 1.18523,32.88616 2.52596,48.95598 4.47333,53.61669 2.89414,6.92664 15.02661,9.34748 27.45722,5.47864 10.77102,-3.35232 16.66848,-9.85179 18.9592,-20.89455 1.58476,-7.63962 1.37605,-13.35581 -1.09389,-29.95854 -1.54741,-10.40164 -2.18095,-19.25305 -2.15173,-30.06257 l 0.0414,-15.32032 -2.53727,0.63681 c -1.3955,0.35025 -3.82813,1.55599 -5.40584,2.67942 -1.57771,1.12343 -3.11095,1.80022 -3.4072,1.50398 -0.94326,-0.94326 5.47549,-11.94268 12.19001,-20.88925 6.94951,-9.2597 14.52919,-15.93206 23.60375,-20.7783 7.23248,-3.86248 8.56468,-3.80242 5.47612,0.24689 -4.30852,5.64875 -9.57105,18.00201 -11.12188,26.10745 -1.88249,9.8389 -1.9179,25.25951 -0.0799,34.79568 0.77788,4.03588 3.49924,14.51983 6.04747,23.29766 7.23676,24.92824 7.19313,36.71927 -0.188,50.81506 -4.15239,7.92984 -11.85767,15.44566 -19.52613,19.046 -5.92957,2.78393 -16.01075,5.08499 -29.24766,6.67587 -16.0788,1.93242 -18.03848,3.2616 -19.77758,13.41441 L 514.59377,418 l -9.04688,0.011 c -4.97579,0.006 -10.67636,0.28051 -12.66793,0.60991 l -3.62105,0.59891 z"
       id="path1"
       inkscape:label="path1" />
  </g>
</svg>
